<svg xmlns="http://www.w3.org/2000/svg" width="40.12" height="46.92" viewBox="0 0 40.12 46.92"><g style="isolation:isolate"><path d="M44.87,5.09a.78.78,0,0,1,.61.81c0,.59-.91,1.07-2.74,1.42,0,.17-.68.48-2,.92L40.1,9.56c.17,0,.3.27.4.81,0,.76-1.38,3.13-4.16,7.11v.1h.1c2.56-3.78,4.82-6.92,6.81-9.45l.6-.2H44c.61.09.91.39.91.91v.21a16,16,0,0,1-3.55,5.79,123.3,123.3,0,0,0-12,17.06L26,37l-3.35,4.67h.1l18.79-5.18q1.21,0,5.58-2h.31l.41.4v.21c0,.57-1.22,1.49-3.66,2.74a25.72,25.72,0,0,0-4.06,1.73.27.27,0,0,1,.3.3q0,1-4.77,2.64L21.31,48.05q-7.8,4-9.65,4a1.26,1.26,0,0,1-.41-.81c.17-.44.34-.68.51-.71l-.1-.82c.71-1,1.42-1.52,2.13-1.52l2-5a90.7,90.7,0,0,0,4.88-8.12q0-1.39,3.15-6.2,2.41-5.25,7.82-16.15h-.21q-16.7,5.7-18.18,5.69a.72.72,0,0,1-.81-.81q0-1.06,4.27-2v-.1h-.1L8.41,18h-.1a1.19,1.19,0,0,1-.61-.51v-.71c.1-.27.88-.75,2.33-1.43,0-.81.61-1.21,1.83-1.21q3.53-1.32,10.06-3.05V11h-.21q-10.79,1.11-13,2c-.25,0-.52-.2-.81-.61V12c0-.66,1.8-1.33,5.38-2q13.52-1.43,25-3.55c0-.1.34-.21,1-.31.72-.61,1.19-.91,1.43-.91h.2l.71.2.91-.2h.21c.4,0,.61.13.61.3A4.21,4.21,0,0,1,44.87,5.09Zm-28,10.25v.11h.1l.41-.11v-.1h-.21Zm.61-.2v.1h.2v-.1ZM20.7,45.2l5.69-2.33v-.1h-.11A37.73,37.73,0,0,0,21,44.29Zm2.64-10.76v.1h.1q7.92-11.85,7.92-12.9-5.64,8.07-6.19,9.14ZM33.8,12.91V13h.1L35,11.38h-.2Q34.46,11.38,33.8,12.91Z" transform="translate(-7.7 -5.09)" fill="#231f20"/>
</g></svg>
